<svg width="24" height="24" viewBox="0 0 24 24" fill="none" xmlns="http://www.w3.org/2000/svg">
<g clip-path="url(#clip0_369_62)">
<path d="M17.25 2C17.6111 2 17.9687 2.07113 18.3024 2.20933C18.636 2.34753 18.9392 2.5501 19.1945 2.80546C19.4499 3.06082 19.6525 3.36398 19.7907 3.69762C19.9289 4.03127 20 4.38886 20 4.75V19.25C20 19.6111 19.9289 19.9687 19.7907 20.3024C19.6525 20.636 19.4499 20.9392 19.1945 21.1945C18.9392 21.4499 18.636 21.6525 18.3024 21.7907C17.9687 21.9289 17.6111 22 17.25 22H6.75C6.38878 22 6.0311 21.9288 5.69739 21.7906C5.36368 21.6523 5.06048 21.4497 4.8051 21.1942C4.54973 20.9387 4.34719 20.6354 4.20904 20.3017C4.0709 19.9679 3.99987 19.6102 4 19.249V4.75C4 4.02065 4.28973 3.32118 4.80546 2.80546C5.32118 2.28973 6.02065 2 6.75 2H7.041V10.167C7.041 10.915 7.831 11.181 8.36 10.907L8.45 10.852L10.543 9.655L12.683 10.885C13.129 11.193 13.944 10.985 14.033 10.295L14.041 10.167V2H17.25ZM12.541 2V9.076L10.92 8.144C10.7944 8.08904 10.6581 8.06251 10.521 8.06631C10.384 8.07011 10.2494 8.10415 10.127 8.166L10.02 8.229L8.541 9.075V2H12.541Z" fill="#949CA9"/>
</g>
<defs>
<clipPath id="clip0_369_62">
<rect width="24" height="24" fill="white"/>
</clipPath>
</defs>
</svg>
